Coordinates
version=1
nRows=15
nColumns=34
inDegrees=no

Units are S.I. units (second, meters, Newtons, ...)
If the header above contains a line with 'inDegrees', this indicates whether rotational values are in degrees (yes) or radians (no).

endheader
time	pelvis_tilt	pelvis_list	pelvis_rotation	pelvis_tx	pelvis_ty	pelvis_tz	hip_flexion_r	hip_adduction_r	hip_rotation_r	knee_angle_r	ankle_angle_r	subtalar_angle_r	mtp_angle_r	hip_flexion_l	hip_adduction_l	hip_rotation_l	knee_angle_l	ankle_angle_l	subtalar_angle_l	mtp_angle_l	lumbar_extension	lumbar_bending	lumbar_rotation	arm_flex_r	arm_add_r	arm_rot_r	elbow_flex_r	pro_sup_r	arm_flex_l	arm_add_l	arm_rot_l	elbow_flex_l	pro_sup_l
1.28	-0.112386	-0.0643249	-0.0389552	-0.477511	1.15558	-0.568646	0.711504	-0.163577	-0.157534	0.591942	-0.563408	-0.149819	-0.019656	0.673708	-0.286232	-0.132741	0.526985	-0.676772	-0.248056	-0.019656	-0.59765	-0.0161171	-0.0421764	-0.712523	-0.275658	-0.400617	1.66004	2.00143	-0.513088	-0.431934	-0.262735	1.86909	2.08604
1.29	-0.108293	-0.0591601	-0.0360905	-0.464778	1.12588	-0.56825	0.727943	-0.169278	-0.136344	0.659794	-0.421783	-0.154933	-0.019656	0.699478	-0.281611	-0.104039	0.630654	-0.468286	-0.250482	-0.019656	-0.588944	-0.0210188	-0.0526116	-0.668797	-0.252537	-0.402434	1.6414	2.01743	-0.465867	-0.427197	-0.254072	1.842	2.09033
1.3	-0.108107	-0.0546702	-0.0333997	-0.453587	1.09554	-0.567782	0.753583	-0.175024	-0.115432	0.73316	-0.288581	-0.159465	-0.019656	0.733217	-0.278192	-0.0770742	0.732571	-0.284934	-0.249592	-0.019656	-0.580069	-0.0254212	-0.0604029	-0.620118	-0.232893	-0.403413	1.62459	2.02835	-0.414175	-0.422818	-0.24228	1.82035	2.09317
1.31	-0.11177	-0.0508649	-0.0308755	-0.444124	1.0649	-0.567302	0.788348	-0.180832	-0.0948809	0.811791	-0.164865	-0.163446	-0.019656	0.77484	-0.275957	-0.0518467	0.832591	-0.127232	-0.245622	-0.019656	-0.571146	-0.029292	-0.0654764	-0.566563	-0.216735	-0.403629	1.60968	2.03427	-0.357745	-0.418818	-0.227117	1.80389	2.0945
1.32	-0.119069	-0.0477771	-0.0285121	-0.436343	1.03412	-0.566984	0.831917	-0.186738	-0.0749355	0.894974	-0.0532918	-0.166984	-0.019656	0.823988	-0.274859	-0.028315	0.93039	0.00406552	-0.239134	-0.019656	-0.562551	-0.0325396	-0.0676233	-0.508374	-0.204119	-0.403276	1.59696	2.03532	-0.295962	-0.415229	-0.207985	1.79203	2.09421
1.33	-0.129531	-0.045447	-0.0263256	-0.429921	1.004	-0.566788	0.883488	-0.192804	-0.0560127	0.98145	0.0425828	-0.170237	-0.019656	0.879734	-0.274807	-0.00638951	1.02544	0.108956	-0.230825	-0.019656	-0.554989	-0.0350404	-0.0665574	-0.445988	-0.19521	-0.402579	1.58696	2.03161	-0.228048	-0.41205	-0.184033	1.78396	2.09211
1.34	-0.1424	-0.0438452	-0.0243534	-0.424258	0.976256	-0.566641	0.941589	-0.199137	-0.0385931	1.06946	0.119836	-0.173305	-0.019656	0.940337	-0.275621	0.0139958	1.11689	0.189087	-0.221285	-0.019656	-0.549394	-0.0367467	-0.0621888	-0.379902	-0.190363	-0.401526	1.58032	2.0234	-0.153453	-0.409214	-0.154525	1.77881	2.08802
1.35	-0.156735	-0.0428034	-0.0226301	-0.419016	0.951472	-0.566556	1.00405	-0.205898	-0.0230688	1.15685	0.177595	-0.176098	-0.019656	1.00328	-0.276993	0.0328117	1.20356	0.247983	-0.210927	-0.019656	-0.546722	-0.0377688	-0.0548313	-0.31055	-0.190087	-0.39969	1.5776	2.01115	-0.0721129	-0.406614	-0.119126	1.7758	2.0818
1.36	-0.17159	-0.0420002	-0.0211785	-0.414488	0.928702	-0.566589	1.06823	-0.213242	-0.00959322	1.24123	0.217591	-0.178296	-0.019656	1.06572	-0.278516	0.0499138	1.28407	0.290484	-0.200065	-0.019656	-0.547688	-0.0383909	-0.0452233	-0.238203	-0.194922	-0.396242	1.57912	1.99575	0.0155032	-0.404157	-0.0780149	1.7742	2.07354
1.37	-0.186208	-0.0410138	-0.0200418	-0.410989	0.907104	-0.566749	1.13144	-0.221201	0.00202348	1.32029	0.243699	-0.179423	-0.019656	1.12509	-0.279789	0.0650833	1.35729	0.321684	-0.189017	-0.019656	-0.552579	-0.0390319	-0.0343801	-0.162905	-0.205269	-0.390101	1.58477	1.97857	0.108502	-0.401799	-0.0318685	1.77337	2.0636
1.38	-0.200136	-0.0394413	-0.0193218	-0.408383	0.886407	-0.566966	1.19143	-0.229544	0.0123012	1.39214	0.260812	-0.179019	-0.019656	1.17969	-0.280561	0.0781397	1.42261	0.345864	-0.178162	-0.019656	-0.561188	-0.0401424	-0.0233508	-0.0844638	-0.221231	-0.380163	1.59401	1.9614	0.205752	-0.399555	0.0182403	1.77273	2.05266
1.39	-0.213231	-0.0370418	-0.019182	-0.406429	0.866605	-0.56715	1.24673	-0.237712	0.0219346	1.45561	0.273561	-0.176844	-0.019656	1.2289	-0.280825	0.0890931	1.48017	0.365814	-0.167952	-0.019656	-0.572902	-0.0420653	-0.0129913	-0.00248309	-0.242511	-0.365503	1.60587	1.94624	0.306072	-0.397475	0.071007	1.77177	2.04155
1.4	-0.225588	-0.0338096	-0.0198216	-0.40496	0.84778	-0.567228	1.29675	-0.244891	0.0315917	1.51038	0.285341	-0.173021	-0.019656	1.27315	-0.280806	0.0982233	1.53074	0.382753	-0.158868	-0.019656	-0.586882	-0.0449419	-0.00383513	0.0835483	-0.268402	-0.34548	1.61911	1.93483	0.408359	-0.395608	0.125086	1.77016	2.03085
1.41	-0.237402	-0.0299223	-0.0214425	-0.403816	0.830085	-0.567156	1.34165	-0.250196	0.0417824	1.55695	0.297844	-0.168047	-0.019656	1.31341	-0.280859	0.106001	1.57546	0.39673	-0.151364	-0.019656	-0.602298	-0.0487289	0.00392106	0.174146	-0.297856	-0.319774	1.63245	1.92834	0.51167	-0.393967	0.17923	1.76769	2.02072
1.42	-0.248832	-0.025622	-0.0242176	-0.402825	0.813727	-0.566916	1.38213	-0.252901	0.0528111	1.59636	0.311151	-0.16266	-0.019656	1.35074	-0.281341	0.11292	1.6155	0.407311	-0.145767	-0.019656	-0.618512	-0.0532744	0.010344	0.269708	-0.329597	-0.288358	1.64465	1.92714	0.615229	-0.392516	0.232348	1.76434	2.01107
